<mxfile host="app.diagrams.net" modified="2024-04-07T13:44:56.896Z" agent="Mozilla/5.0 (Windows NT 10.0; Win64; x64) AppleWebKit/537.36 (KHTML, like Gecko) Chrome/123.0.0.0 Safari/537.36" etag="h9A4E6GhCWZ5F5OPhkNq" version="24.2.2" type="device">
  <diagram name="Page-1" id="6bdgxWif7orxaYUU16MI">
    <mxGraphModel dx="2039" dy="919" grid="0" gridSize="10" guides="1" tooltips="1" connect="1" arrows="1" fold="1" page="0" pageScale="1" pageWidth="850" pageHeight="1100" math="0" shadow="0">
      <root>
        <mxCell id="0" />
        <mxCell id="1" parent="0" />
        <mxCell id="o3fK-S1af2w00dByT0cn-7" value="" style="ellipse;whiteSpace=wrap;html=1;fillColor=#dae8fc;strokeColor=#6c8ebf;sketch=1;curveFitting=1;jiggle=2;" vertex="1" parent="1">
          <mxGeometry x="127.5" y="90" width="335" height="200" as="geometry" />
        </mxCell>
        <mxCell id="o3fK-S1af2w00dByT0cn-4" style="edgeStyle=orthogonalEdgeStyle;rounded=0;orthogonalLoop=1;jettySize=auto;html=1;exitX=0;exitY=0.5;exitDx=0;exitDy=0;entryX=0.5;entryY=0;entryDx=0;entryDy=0;sketch=1;curveFitting=1;jiggle=2;" edge="1" parent="1" source="o3fK-S1af2w00dByT0cn-1" target="o3fK-S1af2w00dByT0cn-2">
          <mxGeometry relative="1" as="geometry" />
        </mxCell>
        <mxCell id="o3fK-S1af2w00dByT0cn-1" value="&lt;font style=&quot;font-size: 18px;&quot;&gt;project&lt;/font&gt;" style="rounded=1;whiteSpace=wrap;html=1;sketch=1;curveFitting=1;jiggle=2;" vertex="1" parent="1">
          <mxGeometry x="250" y="130" width="90" height="40" as="geometry" />
        </mxCell>
        <mxCell id="o3fK-S1af2w00dByT0cn-2" value="&lt;font style=&quot;font-size: 18px;&quot;&gt;server&lt;/font&gt;" style="rounded=1;whiteSpace=wrap;html=1;sketch=1;curveFitting=1;jiggle=2;" vertex="1" parent="1">
          <mxGeometry x="170" y="200" width="90" height="40" as="geometry" />
        </mxCell>
        <mxCell id="o3fK-S1af2w00dByT0cn-3" value="&lt;font style=&quot;font-size: 18px;&quot;&gt;client&lt;/font&gt;" style="rounded=1;whiteSpace=wrap;html=1;sketch=1;curveFitting=1;jiggle=2;" vertex="1" parent="1">
          <mxGeometry x="330" y="200" width="90" height="40" as="geometry" />
        </mxCell>
        <mxCell id="o3fK-S1af2w00dByT0cn-5" style="edgeStyle=orthogonalEdgeStyle;rounded=0;orthogonalLoop=1;jettySize=auto;html=1;exitX=1;exitY=0.5;exitDx=0;exitDy=0;entryX=0.5;entryY=0;entryDx=0;entryDy=0;sketch=1;curveFitting=1;jiggle=2;" edge="1" parent="1" source="o3fK-S1af2w00dByT0cn-1" target="o3fK-S1af2w00dByT0cn-3">
          <mxGeometry relative="1" as="geometry">
            <mxPoint x="440" y="150" as="targetPoint" />
          </mxGeometry>
        </mxCell>
        <mxCell id="o3fK-S1af2w00dByT0cn-8" value="version 1.3.0" style="text;strokeColor=none;fillColor=none;html=1;fontSize=18;fontStyle=1;verticalAlign=middle;align=center;sketch=1;curveFitting=1;jiggle=2;" vertex="1" parent="1">
          <mxGeometry x="240" y="90" width="100" height="40" as="geometry" />
        </mxCell>
        <mxCell id="o3fK-S1af2w00dByT0cn-18" value="&lt;font style=&quot;font-size: 18px;&quot;&gt;new feature&lt;/font&gt;" style="html=1;whiteSpace=wrap;aspect=fixed;shape=isoRectangle;sketch=1;curveFitting=1;jiggle=2;" vertex="1" parent="1">
          <mxGeometry x="-39.999999999999986" y="176" width="133.33" height="80" as="geometry" />
        </mxCell>
        <mxCell id="o3fK-S1af2w00dByT0cn-19" value="" style="shape=flexArrow;endArrow=classic;html=1;rounded=0;exitX=0.983;exitY=0.563;exitDx=0;exitDy=0;exitPerimeter=0;entryX=0;entryY=0.5;entryDx=0;entryDy=0;sketch=1;curveFitting=1;jiggle=2;" edge="1" parent="1" source="o3fK-S1af2w00dByT0cn-18" target="o3fK-S1af2w00dByT0cn-2">
          <mxGeometry width="50" height="50" relative="1" as="geometry">
            <mxPoint x="400" y="490" as="sourcePoint" />
            <mxPoint x="450" y="440" as="targetPoint" />
          </mxGeometry>
        </mxCell>
        <mxCell id="o3fK-S1af2w00dByT0cn-20" value="" style="ellipse;whiteSpace=wrap;html=1;fillColor=#dae8fc;strokeColor=#6c8ebf;sketch=1;curveFitting=1;jiggle=2;" vertex="1" parent="1">
          <mxGeometry x="-425" y="90" width="335" height="200" as="geometry" />
        </mxCell>
        <mxCell id="o3fK-S1af2w00dByT0cn-24" style="edgeStyle=orthogonalEdgeStyle;rounded=0;orthogonalLoop=1;jettySize=auto;html=1;exitX=0;exitY=0.5;exitDx=0;exitDy=0;entryX=0.5;entryY=0;entryDx=0;entryDy=0;sketch=1;curveFitting=1;jiggle=2;" edge="1" parent="1" source="o3fK-S1af2w00dByT0cn-25" target="o3fK-S1af2w00dByT0cn-26">
          <mxGeometry relative="1" as="geometry" />
        </mxCell>
        <mxCell id="o3fK-S1af2w00dByT0cn-25" value="&lt;font style=&quot;font-size: 18px;&quot;&gt;project&lt;/font&gt;" style="rounded=1;whiteSpace=wrap;html=1;sketch=1;curveFitting=1;jiggle=2;" vertex="1" parent="1">
          <mxGeometry x="-302.5" y="130" width="90" height="40" as="geometry" />
        </mxCell>
        <mxCell id="o3fK-S1af2w00dByT0cn-26" value="&lt;font style=&quot;font-size: 18px;&quot;&gt;server&lt;/font&gt;" style="rounded=1;whiteSpace=wrap;html=1;sketch=1;curveFitting=1;jiggle=2;" vertex="1" parent="1">
          <mxGeometry x="-382.5" y="200" width="90" height="40" as="geometry" />
        </mxCell>
        <mxCell id="o3fK-S1af2w00dByT0cn-27" value="&lt;font style=&quot;font-size: 18px;&quot;&gt;client&lt;/font&gt;" style="rounded=1;whiteSpace=wrap;html=1;sketch=1;curveFitting=1;jiggle=2;" vertex="1" parent="1">
          <mxGeometry x="-222.5" y="200" width="90" height="40" as="geometry" />
        </mxCell>
        <mxCell id="o3fK-S1af2w00dByT0cn-28" style="edgeStyle=orthogonalEdgeStyle;rounded=0;orthogonalLoop=1;jettySize=auto;html=1;exitX=1;exitY=0.5;exitDx=0;exitDy=0;entryX=0.5;entryY=0;entryDx=0;entryDy=0;sketch=1;curveFitting=1;jiggle=2;" edge="1" parent="1" source="o3fK-S1af2w00dByT0cn-25" target="o3fK-S1af2w00dByT0cn-27">
          <mxGeometry relative="1" as="geometry">
            <mxPoint x="-112.5" y="150" as="targetPoint" />
          </mxGeometry>
        </mxCell>
        <mxCell id="o3fK-S1af2w00dByT0cn-29" value="version 1.2.3" style="text;strokeColor=none;fillColor=none;html=1;fontSize=18;fontStyle=1;verticalAlign=middle;align=center;sketch=1;curveFitting=1;jiggle=2;" vertex="1" parent="1">
          <mxGeometry x="-312.5" y="90" width="100" height="40" as="geometry" />
        </mxCell>
        <mxCell id="o3fK-S1af2w00dByT0cn-34" value="" style="endArrow=none;html=1;rounded=0;sketch=1;curveFitting=1;jiggle=2;" edge="1" parent="1">
          <mxGeometry width="50" height="50" relative="1" as="geometry">
            <mxPoint x="-60" y="310" as="sourcePoint" />
            <mxPoint x="-60" y="50" as="targetPoint" />
          </mxGeometry>
        </mxCell>
        <mxCell id="o3fK-S1af2w00dByT0cn-35" value="&lt;ul style=&quot;font-size: 18px;&quot;&gt;&lt;li style=&quot;font-size: 18px;&quot;&gt;project 1.2.3&lt;/li&gt;&lt;li style=&quot;font-size: 18px;&quot;&gt;server 1.2.3&lt;/li&gt;&lt;li style=&quot;font-size: 18px;&quot;&gt;client 1.2.3&lt;/li&gt;&lt;/ul&gt;" style="text;strokeColor=none;fillColor=none;html=1;whiteSpace=wrap;verticalAlign=middle;overflow=hidden;sketch=1;curveFitting=1;jiggle=2;rounded=0;glass=0;shadow=0;fontSize=18;" vertex="1" parent="1">
          <mxGeometry x="-337.5" y="291" width="165" height="110" as="geometry" />
        </mxCell>
        <mxCell id="o3fK-S1af2w00dByT0cn-36" value="&lt;u&gt;Artifacts&lt;/u&gt;:" style="text;strokeColor=none;fillColor=none;html=1;fontSize=18;fontStyle=1;verticalAlign=middle;align=center;sketch=1;curveFitting=1;jiggle=2;" vertex="1" parent="1">
          <mxGeometry x="-325.5" y="285" width="100" height="40" as="geometry" />
        </mxCell>
        <mxCell id="o3fK-S1af2w00dByT0cn-37" value="&lt;ul style=&quot;font-size: 18px;&quot;&gt;&lt;li style=&quot;font-size: 18px;&quot;&gt;project 1.3.0&lt;/li&gt;&lt;li style=&quot;font-size: 18px;&quot;&gt;server 1.3.0&lt;/li&gt;&lt;li style=&quot;font-size: 18px;&quot;&gt;&lt;font color=&quot;#ff0000&quot;&gt;client 1.3.0&lt;/font&gt;&lt;/li&gt;&lt;/ul&gt;" style="text;strokeColor=none;fillColor=none;html=1;whiteSpace=wrap;verticalAlign=middle;overflow=hidden;sketch=1;curveFitting=1;jiggle=2;rounded=0;glass=0;shadow=0;fontSize=18;" vertex="1" parent="1">
          <mxGeometry x="145" y="297" width="300" height="110" as="geometry" />
        </mxCell>
        <mxCell id="o3fK-S1af2w00dByT0cn-38" value="&lt;u&gt;Artifacts&lt;/u&gt;:" style="text;strokeColor=none;fillColor=none;html=1;fontSize=18;fontStyle=1;verticalAlign=middle;align=center;sketch=1;curveFitting=1;jiggle=2;" vertex="1" parent="1">
          <mxGeometry x="157" y="291" width="100" height="40" as="geometry" />
        </mxCell>
      </root>
    </mxGraphModel>
  </diagram>
</mxfile>
